<?xml version="1.0" standalone="no"?>
<!DOCTYPE svg PUBLIC "-//W3C//DTD SVG 20010904//EN"
 "http://www.w3.org/TR/2001/REC-SVG-20010904/DTD/svg10.dtd">
<svg version="1.0" xmlns="http://www.w3.org/2000/svg"
 width="260.000000pt" height="260.000000pt" viewBox="0 0 260.000000 260.000000"
 preserveAspectRatio="xMidYMid meet">
<metadata>
Created by potrace 1.14, written by Peter Selinger 2001-2017
</metadata>
<g transform="translate(0.000000,260.000000) scale(0.100000,-0.100000)"
fill="#000000" stroke="none">
<path d="M865 2330 c-3 -5 -11 -8 -16 -5 -5 4 -9 2 -9 -3 0 -6 -13 -9 -30 -8
-23 2 -27 -1 -18 -11 8 -11 7 -12 -7 -7 -14 6 -16 4 -11 -7 4 -8 0 -5 -8 5
-14 17 -16 17 -16 4 0 -9 -5 -20 -12 -24 -6 -4 -8 -3 -5 3 4 6 0 13 -7 16 -10
4 -14 0 -11 -13 3 -13 -1 -17 -11 -13 -7 3 -11 10 -7 16 4 6 1 7 -6 3 -7 -5
-10 -14 -7 -22 3 -8 1 -14 -4 -14 -6 0 -10 5 -10 11 0 5 -5 7 -10 4 -6 -4 -7
-12 -3 -18 4 -7 0 -6 -10 2 -14 11 -17 11 -18 0 -1 -8 -1 -18 0 -23 1 -5 -5
-4 -13 3 -9 7 -13 18 -9 24 3 6 1 7 -6 3 -6 -4 -9 -12 -6 -17 4 -5 1 -9 -5 -9
-6 0 -8 -6 -4 -12 5 -10 4 -10 -6 -1 -11 10 -20 8 -47 -13 -18 -14 -38 -22
-43 -19 -6 4 -9 1 -8 -6 2 -7 -2 -13 -7 -14 -6 0 -26 -13 -45 -29 -32 -26 -25
-27 10 -2 9 6 5 1 -8 -12 -14 -13 -31 -21 -40 -17 -12 4 -13 3 -2 -10 11 -13
10 -14 -4 -9 -11 4 -16 1 -16 -10 0 -9 -5 -16 -11 -16 -5 0 -7 5 -3 12 4 7 3
8 -4 4 -6 -4 -8 -14 -5 -23 4 -11 2 -14 -5 -9 -11 7 -38 -31 -34 -47 1 -5 -2
-6 -8 -2 -8 5 -7 12 2 23 8 11 5 10 -10 -3 -14 -12 -19 -21 -12 -23 7 -3 1
-10 -12 -16 -13 -7 -23 -21 -22 -33 0 -13 -5 -19 -12 -16 -6 2 -15 -1 -20 -8
-4 -7 -3 -10 4 -5 6 3 14 1 18 -5 4 -7 3 -9 -3 -6 -6 4 -19 -1 -29 -9 -10 -9
-13 -13 -6 -9 6 3 12 2 12 -3 0 -5 -10 -12 -21 -15 -15 -4 -20 -11 -15 -23 5
-12 2 -15 -10 -10 -15 6 -15 4 -3 -11 12 -15 12 -16 -2 -11 -12 5 -15 1 -13
-18 2 -20 0 -23 -11 -14 -11 9 -12 7 -8 -11 5 -17 3 -20 -8 -14 -11 7 -11 5 1
-10 12 -15 12 -17 1 -10 -11 6 -13 4 -8 -9 6 -14 3 -17 -8 -12 -9 3 -13 2 -10
-3 3 -5 1 -13 -5 -16 -8 -5 -7 -11 1 -21 10 -12 9 -13 -7 -7 -16 6 -17 5 -6
-9 10 -12 10 -18 1 -23 -8 -6 -7 -10 2 -17 10 -7 7 -8 -9 -5 -23 5 -23 5 -7
-13 12 -14 13 -20 4 -26 -7 -4 -10 -3 -6 3 4 6 1 13 -6 16 -8 3 -12 -7 -11
-32 0 -20 -4 -42 -10 -50 -8 -11 -8 -13 2 -7 6 4 12 3 12 -2 0 -5 -10 -14 -22
-21 -13 -6 -15 -9 -6 -7 10 3 18 2 19 -2 0 -4 2 -15 4 -24 2 -10 -1 -18 -7
-18 -6 0 -4 -7 3 -17 10 -11 10 -14 1 -9 -7 4 -12 1 -12 -9 0 -10 5 -13 13 -9
8 5 8 2 -2 -9 -11 -14 -11 -20 0 -34 12 -16 12 -17 -1 -6 -13 10 -18 8 -30
-10 -12 -21 -12 -21 5 -7 17 14 18 13 12 -3 -4 -10 -7 -21 -7 -23 0 -3 -4 -3
-8 0 -4 2 -8 -4 -8 -15 0 -19 1 -19 17 2 12 16 18 19 24 9 5 -9 4 -11 -3 -6
-7 4 -12 1 -12 -9 0 -10 5 -13 13 -9 8 5 8 2 -2 -9 -10 -13 -11 -20 -2 -31 8
-10 9 -16 1 -21 -9 -6 -14 1 -11 17 0 4 -6 5 -15 1 -13 -5 -13 -7 -2 -14 7 -5
14 -21 14 -36 3 -43 3 -45 13 -38 16 9 22 -13 8 -27 -12 -10 -11 -15 3 -28 9
-8 11 -12 5 -8 -6 4 -10 -3 -10 -17 0 -19 3 -21 15 -12 8 6 12 7 8 3 -4 -5 -2
-16 4 -24 15 -18 19 -40 7 -47 -5 -4 -2 -17 7 -30 9 -13 12 -30 8 -36 -5 -8
-3 -9 6 -4 9 6 10 2 5 -16 -7 -24 -7 -24 10 -4 9 11 14 14 10 7 -4 -7 -1 -19
5 -27 10 -12 9 -15 -4 -15 -9 0 -16 -4 -16 -9 0 -6 9 -8 20 -6 11 2 19 1 19
-3 -3 -19 2 -33 10 -27 5 3 12 1 15 -4 4 -5 1 -13 -5 -17 -8 -5 -9 -3 -4 6 5
9 4 11 -3 6 -18 -11 -15 -14 20 -31 18 -8 25 -13 16 -11 -12 4 -15 0 -11 -9 3
-8 9 -12 14 -9 5 3 9 -4 9 -16 0 -14 4 -19 12 -14 7 5 9 2 5 -8 -3 -10 3 -24
16 -35 16 -14 19 -14 9 -1 -11 13 -11 18 0 24 7 4 10 4 6 -1 -4 -4 -3 -14 3
-22 6 -7 9 -22 6 -33 -3 -10 -2 -19 2 -18 27 3 44 -6 61 -35 11 -17 20 -26 20
-19 0 6 5 12 11 12 5 0 8 -4 5 -9 -3 -4 3 -16 14 -26 11 -10 17 -22 14 -26 -3
-5 2 -6 10 -3 11 4 14 0 11 -15 -2 -11 -1 -20 3 -20 19 3 33 -2 28 -10 -4 -5
5 -4 18 2 13 7 22 16 19 21 -4 5 0 7 9 4 8 -4 20 3 28 15 12 21 12 21 -5 7
-17 -14 -18 -13 -12 3 4 10 7 21 7 23 0 3 5 2 10 -1 6 -3 10 -2 10 4 0 5 -6
12 -12 14 -10 4 -10 6 0 6 8 1 10 6 6 14 -5 7 0 6 11 -3 11 -9 16 -10 11 -2
-4 7 -2 12 4 12 6 0 9 4 6 9 -8 12 4 41 16 41 5 0 6 -4 3 -10 -3 -6 1 -7 10
-4 14 6 14 8 -2 20 -17 13 -17 13 0 14 15 0 16 4 7 20 -9 16 -8 19 7 13 13 -5
15 -3 10 12 -7 16 -5 16 10 4 10 -7 15 -9 11 -5 -4 5 -2 16 5 24 10 13 9 14
-2 7 -10 -6 -12 -4 -7 4 5 7 15 10 23 6 13 -4 14 -3 3 10 -12 14 -7 20 14 16
5 -1 3 6 -5 15 -9 12 -9 15 -1 10 7 -4 12 -2 12 4 0 6 4 9 9 5 6 -3 8 4 6 15
-2 13 1 20 11 20 8 0 14 5 14 11 0 5 -5 7 -12 3 -7 -5 -8 -3 -4 5 5 7 15 10
23 6 12 -4 13 -2 5 8 -8 10 -6 16 9 25 11 7 17 17 14 22 -3 6 -1 10 6 10 7 0
9 3 6 7 -4 3 1 11 10 18 13 9 13 14 3 20 -9 6 -11 4 -5 -5 5 -9 4 -11 -4 -6
-17 11 -4 25 20 21 17 -3 19 -1 9 10 -8 10 -8 15 1 21 8 5 9 3 4 -6 -5 -9 -4
-11 3 -6 7 4 12 16 12 26 0 10 5 22 11 25 6 4 8 14 4 22 -4 13 -3 14 9 4 12
-10 13 -8 8 11 -5 20 -3 21 10 11 13 -11 15 -8 13 18 -1 22 2 29 13 24 10 -3
12 0 8 10 -3 8 -2 15 2 15 4 0 8 10 9 22 2 21 21 40 34 32 4 -2 6 4 5 13 0 10
4 18 11 18 6 0 15 4 20 9 4 5 3 6 -3 3 -16 -9 -25 16 -12 34 7 11 8 9 3 -6 -5
-17 -4 -18 7 -7 11 11 10 16 -4 26 -10 7 -14 17 -10 22 4 4 0 3 -9 -4 -14 -10
-16 -9 -14 13 2 14 -1 23 -6 19 -5 -3 -7 -10 -4 -15 4 -5 2 -9 -4 -9 -5 0 -13
5 -16 11 -4 6 -14 8 -22 5 -8 -4 -11 -1 -8 5 4 6 14 8 22 5 8 -3 11 -1 8 4 -3
6 -17 10 -31 10 -14 0 -27 6 -30 14 -3 8 -15 12 -27 10 -12 -2 -16 -2 -9 2 21
10 13 22 -10 16 -21 -5 -22 -4 -9 12 13 15 12 16 -12 7 -22 -9 -25 -8 -22 9 3
14 -1 17 -12 13 -11 -4 -14 -2 -9 5 5 8 -2 12 -19 12 -15 0 -24 4 -20 10 3 6
-1 10 -10 10 -9 0 -13 -4 -10 -10 10 -16 -1 -11 -16 7 -8 10 -9 14 -2 10 6 -4
15 -2 19 5 4 7 4 10 -1 6 -4 -4 -17 -3 -28 3 -14 8 -18 8 -13 0 4 -6 2 -11 -3
-11 -6 0 -11 10 -12 23 0 12 -3 16 -6 10 -3 -9 -10 -10 -22 -3 -22 11 -61 -25
-64 -59 -1 -12 -6 -20 -12 -17 -7 2 -12 -2 -12 -10 0 -7 5 -10 10 -7 6 3 7 1
3 -5 -4 -7 -15 -12 -24 -12 -15 0 -15 -2 -2 -10 13 -8 12 -10 -4 -10 -15 0
-16 -3 -6 -15 11 -13 10 -14 -4 -9 -11 4 -16 2 -14 -7 2 -8 -3 -13 -10 -11 -8
1 -11 -2 -7 -8 3 -5 -1 -13 -9 -16 -10 -4 -14 -16 -12 -35 2 -16 -1 -26 -6
-23 -16 10 -35 -15 -33 -45 1 -24 -2 -29 -18 -26 -16 4 -17 2 -5 -12 8 -10 8
-14 1 -10 -6 4 -14 3 -18 -3 -3 -5 -1 -10 5 -10 6 0 8 -5 5 -10 -4 -6 -10 -8
-15 -5 -5 3 -12 0 -16 -6 -4 -8 -3 -9 4 -5 7 4 12 2 12 -3 0 -6 -6 -11 -14
-11 -20 0 -40 -26 -26 -35 8 -5 7 -12 -4 -24 -9 -10 -14 -20 -11 -23 3 -3 -3
-11 -12 -19 -16 -13 -17 -12 -5 3 11 13 11 18 0 24 -7 4 -10 4 -6 -1 4 -4 3
-14 -3 -21 -7 -8 -7 -14 1 -19 6 -3 8 -11 5 -16 -4 -5 -16 -2 -29 6 -12 8 -27
12 -31 8 -5 -5 -4 -1 2 7 9 11 8 19 -1 32 -7 10 -17 14 -21 10 -5 -4 -5 -1 -1
6 6 10 11 10 21 2 10 -9 13 -7 11 6 -1 9 -10 22 -20 29 -10 7 -13 16 -8 19 6
3 8 15 5 27 -4 13 -8 16 -13 9 -4 -6 -7 3 -7 19 0 27 2 29 14 13 12 -15 13
-14 3 6 -6 13 -9 30 -6 38 3 7 -1 19 -8 26 -11 11 -11 15 3 25 13 10 13 14 3
21 -21 14 -21 45 1 63 16 13 17 16 4 16 -9 0 -13 -5 -10 -10 3 -6 1 -7 -6 -3
-8 5 -7 13 4 29 18 26 19 37 2 33 -6 -1 -9 -1 -4 1 4 3 5 9 1 14 -3 5 -2 9 3
8 20 -3 27 2 13 11 -12 8 -12 10 5 10 16 0 17 2 5 9 -8 6 -18 7 -23 4 -5 -3
-3 4 4 15 7 12 17 19 21 16 4 -3 5 3 1 12 -4 11 -3 15 5 10 7 -4 10 1 7 14 -2
11 1 20 6 20 6 0 5 8 -2 21 -9 17 -8 20 2 14 9 -6 11 -3 6 9 -5 12 0 19 16 26
12 5 16 9 9 9 -7 1 -10 6 -7 11 4 6 12 8 18 4 7 -3 3 2 -7 10 -18 15 -18 16
-2 16 9 0 15 4 12 9 -4 5 0 12 6 14 10 4 10 6 0 6 -7 1 -10 6 -7 11 5 8 11 8
20 0 10 -8 15 -8 21 1 4 8 3 9 -4 5 -7 -4 -12 -3 -12 3 0 5 5 11 11 13 9 3 15
22 18 51 1 5 6 5 11 2 6 -3 10 1 10 10 0 10 5 13 13 9 9 -6 9 -4 -1 8 -12 14
-10 16 10 11 18 -4 20 -3 8 6 -12 8 -12 11 -1 11 8 0 11 6 7 15 -5 13 -2 14
15 4 15 -8 19 -8 15 0 -4 6 -1 11 6 11 9 0 9 3 -2 10 -13 9 -13 10 0 11 8 1
18 1 23 0 4 0 6 5 5 11 -2 7 3 12 11 10 11 -2 12 0 3 10 -9 11 -7 14 9 15 12
1 17 -3 13 -9 -4 -6 -2 -8 4 -4 6 3 9 15 7 25 -2 12 2 18 13 17 10 0 16 6 16
15 -1 12 5 16 22 14 25 -2 50 18 40 34 -3 5 2 8 11 7 10 -2 23 5 30 14 8 11
22 16 39 14 14 -1 23 0 21 3 -7 7 25 43 38 43 5 0 3 -4 -5 -10 -8 -5 -11 -13
-6 -17 4 -4 14 1 22 12 16 22 35 26 46 10 5 -6 8 -3 8 7 0 9 5 20 12 24 7 4 8
3 4 -4 -4 -7 -1 -12 9 -12 10 0 13 5 9 13 -5 7 0 6 11 -3 15 -12 17 -12 10 -1
-6 11 -4 13 8 8 10 -3 17 -3 17 2 0 4 12 6 26 3 21 -4 25 -2 19 9 -8 12 -6 12
8 0 10 -8 20 -11 24 -8 3 4 13 1 22 -6 14 -11 14 -10 2 6 -12 15 -11 17 2 17
8 0 17 3 20 8 2 4 2 2 1 -5 -4 -16 27 -26 40 -13 8 8 6 9 -6 5 -11 -4 -18 -2
-18 5 0 6 4 9 9 5 5 -3 12 -1 16 5 9 15 25 2 18 -15 -3 -8 0 -15 6 -15 6 0 11
10 12 23 0 12 3 16 6 10 2 -7 11 -13 19 -13 9 0 12 5 8 13 -5 9 -4 9 6 0 10
-10 17 -10 29 -1 13 10 14 10 4 -2 -17 -18 -16 -27 2 -27 8 0 12 4 9 9 -3 4 0
8 5 8 6 0 11 -6 11 -12 0 -9 4 -8 10 2 6 9 10 11 10 3 0 -7 7 -10 17 -6 10 4
14 2 10 -4 -3 -5 0 -10 8 -10 8 0 11 5 8 11 -3 6 -3 8 2 4 4 -4 14 -3 22 4 8
6 13 7 12 2 -1 -5 -1 -16 0 -24 1 -13 2 -13 11 0 6 10 10 11 10 3 0 -7 7 -13
16 -13 9 0 12 -5 8 -12 -4 -7 -3 -8 5 -4 6 4 9 11 6 16 -3 5 0 12 6 16 7 4 9
3 5 -4 -3 -6 -2 -13 4 -17 6 -4 7 -11 4 -17 -4 -7 -2 -8 5 -4 6 4 9 11 6 16
-3 5 -1 12 5 15 6 4 10 3 9 -2 -3 -18 3 -47 8 -35 2 6 9 12 14 12 6 0 7 -5 3
-11 -4 -7 2 -6 17 2 22 11 23 11 11 -4 -11 -13 -10 -15 6 -10 10 2 26 -2 34
-11 9 -8 18 -12 22 -9 3 4 6 1 6 -6 0 -7 5 -9 12 -5 8 5 9 2 4 -11 -5 -15 -4
-16 9 -5 13 10 15 9 15 -10 0 -20 2 -21 17 -9 15 12 16 12 10 -3 -4 -13 -2
-15 10 -11 12 5 14 3 8 -7 -6 -10 -4 -12 8 -7 9 3 21 -1 29 -11 12 -15 11 -16
-4 -3 -10 7 -18 9 -18 3 0 -5 13 -15 29 -22 16 -6 32 -19 35 -27 4 -8 12 -13
19 -10 8 3 14 -1 14 -9 0 -7 -5 -10 -10 -7 -6 3 -7 1 -3 -5 4 -7 14 -12 22
-12 8 0 14 -5 14 -11 0 -5 5 -7 12 -3 7 5 9 0 6 -14 -5 -17 -2 -20 21 -16 21
4 24 3 14 -7 -16 -16 -17 -33 -1 -23 7 5 9 2 5 -9 -4 -12 -2 -14 10 -10 12 5
15 2 10 -11 -5 -12 1 -20 18 -28 14 -6 25 -16 25 -21 0 -5 -6 -5 -13 2 -10 8
-14 7 -14 -4 0 -7 5 -13 11 -12 5 1 10 -4 11 -11 0 -7 7 -17 15 -22 13 -9 13
-11 0 -20 -11 -8 -8 -9 14 -6 28 5 28 5 10 -16 -17 -19 -17 -21 -2 -15 10 3
20 1 24 -5 4 -7 3 -8 -5 -4 -8 5 -10 0 -7 -18 3 -15 1 -24 -5 -21 -5 4 -6 11
-3 17 4 7 2 8 -4 4 -9 -5 -9 -13 0 -29 10 -20 10 -21 -6 -8 -9 8 -16 10 -15 5
4 -22 -2 -35 -13 -29 -7 4 -4 -1 7 -11 16 -13 17 -16 3 -11 -10 3 -20 2 -23
-3 -4 -6 -1 -10 4 -10 6 0 11 -5 11 -11 0 -5 -4 -7 -10 -4 -5 3 -10 1 -10 -5
0 -6 -4 -9 -9 -5 -6 3 -8 -4 -6 -15 2 -11 -1 -20 -7 -20 -5 0 -7 -7 -4 -16 3
-8 2 -12 -4 -9 -6 3 -10 -1 -10 -10 0 -20 -49 -81 -62 -77 -5 1 -3 -8 3 -20
11 -21 11 -22 -4 -10 -13 11 -15 10 -13 -12 2 -14 -1 -23 -5 -20 -5 3 -9 -4
-9 -15 0 -12 -4 -21 -10 -21 -5 0 -10 -7 -10 -15 0 -8 -5 -15 -11 -15 -5 0 -7
5 -3 12 4 6 3 8 -4 4 -6 -3 -9 -15 -7 -26 3 -18 -5 -25 -27 -21 -4 0 -3 -10 2
-24 7 -18 6 -24 -3 -22 -7 1 -12 -7 -12 -18 0 -11 -8 -21 -18 -23 -9 -2 -15
-8 -12 -13 4 -5 1 -9 -4 -9 -6 0 -11 -7 -11 -15 0 -8 -4 -15 -10 -15 -5 0 -9
-6 -7 -12 1 -7 -3 -12 -10 -11 -12 3 -12 -14 0 -34 6 -9 3 -11 -9 -6 -13 5
-15 3 -9 -7 6 -10 4 -12 -11 -6 -10 4 -15 4 -11 0 4 -4 1 -14 -6 -23 -11 -14
-10 -15 8 -1 14 10 13 6 -5 -14 -14 -16 -19 -26 -11 -21 10 6 12 4 7 -4 -5 -7
-14 -10 -21 -7 -9 3 -12 -2 -10 -15 2 -11 -2 -22 -11 -26 -12 -4 -12 -8 -2
-21 10 -12 10 -14 1 -8 -7 4 -13 2 -13 -3 0 -6 -5 -11 -11 -11 -5 0 -7 5 -3
12 4 6 3 8 -3 5 -6 -4 -9 -20 -8 -37 2 -25 0 -28 -11 -19 -12 10 -13 8 -8 -6
5 -12 4 -16 -3 -12 -6 4 -14 0 -17 -9 -4 -10 -2 -13 7 -8 9 6 9 5 0 -8 -7 -8
-9 -19 -5 -23 4 -5 2 -5 -5 -1 -6 3 -14 2 -18 -4 -3 -5 0 -10 7 -10 8 0 6 -5
-5 -11 -9 -5 -21 -8 -26 -4 -5 3 -13 0 -17 -6 -4 -7 -3 -9 4 -5 17 10 20 -18
3 -32 -9 -8 -10 -11 -4 -7 8 4 11 1 7 -9 -3 -9 -12 -12 -22 -9 -9 4 -14 3 -10
-2 9 -10 -10 -47 -21 -41 -5 3 -7 -6 -5 -19 1 -17 -4 -29 -18 -36 -17 -9 -18
-13 -7 -20 11 -7 10 -9 -4 -9 -11 0 -15 -4 -11 -12 5 -8 2 -9 -12 -4 -10 4
-15 4 -11 0 4 -4 1 -14 -6 -23 -11 -14 -10 -14 6 -2 9 8 20 12 22 9 3 -3 -6
-11 -20 -18 -14 -7 -25 -17 -25 -22 0 -5 6 -6 13 -2 8 6 8 3 -1 -9 -8 -9 -19
-15 -25 -14 -7 1 -11 -6 -9 -15 2 -11 -3 -18 -14 -18 -10 0 -14 -5 -10 -15 3
-8 1 -15 -5 -15 -6 0 -7 -4 -4 -10 3 -5 0 -10 -7 -10 -10 0 -10 -2 1 -9 11 -7
11 -9 0 -14 -8 -3 5 -6 28 -6 24 -1 43 4 46 12 4 10 6 10 6 0 1 -7 9 -13 19
-13 14 0 15 2 2 10 -9 6 -10 10 -3 10 6 0 14 -4 18 -10 9 -15 34 0 28 18 -4
14 -3 15 6 2 5 -8 13 -11 17 -8 4 4 14 3 23 -2 20 -10 46 3 37 19 -5 8 0 8 18
1 21 -7 26 -6 26 5 0 8 5 15 11 15 5 0 8 -4 4 -9 -3 -5 0 -13 6 -17 7 -4 9 -3
6 3 -3 5 3 17 13 26 13 11 20 12 23 4 3 -8 10 -5 21 8 15 19 16 19 9 1 -4 -13
-3 -17 5 -12 7 4 12 15 12 24 0 13 2 13 15 -4 15 -18 15 -18 8 0 -5 16 -3 18
15 14 19 -5 20 -4 10 15 -10 19 -9 20 4 9 13 -10 17 -10 21 0 2 7 20 21 38 32
l34 19 -35 -32 -35 -32 41 28 c23 15 39 32 36 37 -3 5 2 7 11 3 8 -3 21 1 27
8 7 8 17 12 22 9 6 -4 4 4 -3 17 -11 21 -11 23 3 11 13 -10 17 -10 22 5 6 15
8 15 17 3 8 -12 9 -11 7 5 -2 11 -7 24 -13 28 -5 4 4 5 20 1 23 -4 26 -3 15 5
-13 9 -12 11 3 11 10 0 17 6 15 14 -2 8 2 15 7 15 6 0 9 -8 7 -17 -2 -15 -1
-15 7 -2 6 8 11 24 11 35 0 17 2 17 10 5 8 -12 10 -10 10 9 0 17 4 22 16 17
14 -6 15 -4 4 9 -11 13 -11 16 0 13 7 -2 17 8 21 22 4 14 8 21 9 15 1 -5 6 1
11 14 6 15 15 21 24 17 8 -3 15 -1 15 4 0 6 -4 10 -8 10 -5 0 -9 7 -9 15 0 12
3 12 16 2 12 -10 13 -9 6 2 -6 11 -4 13 9 8 14 -6 15 -4 5 15 -10 18 -9 20 6
14 15 -5 16 -4 5 9 -12 14 -7 20 14 16 5 -1 6 6 2 15 -5 12 -2 15 11 10 10 -4
14 -4 10 0 -4 4 -1 14 6 23 11 14 10 15 -8 1 -19 -14 -20 -14 -2 6 9 11 14 24
10 29 -5 4 -2 5 5 1 19 -11 35 3 21 20 -11 13 -9 15 16 18 6 1 10 6 10 11 0 6
-6 9 -15 7 -11 -2 -10 0 3 8 9 6 21 9 26 6 4 -3 6 7 4 22 -3 20 -2 23 5 13 8
-11 11 -9 14 10 1 13 8 24 15 24 6 0 15 4 20 9 4 5 3 6 -3 3 -15 -9 -27 20
-12 29 7 4 8 3 4 -4 -4 -7 -2 -12 5 -12 6 0 9 8 7 18 -3 10 1 27 8 37 8 10 14
14 14 9 0 -6 -6 -16 -12 -24 -11 -12 -10 -12 3 -2 9 6 19 9 23 5 4 -4 2 5 -4
21 -9 23 -8 27 4 23 10 -4 14 0 11 14 -3 16 0 19 12 15 13 -5 14 -4 3 9 -11
13 -10 14 6 9 10 -4 16 -4 12 1 -4 4 -2 15 5 23 10 13 9 14 -2 7 -10 -6 -12
-4 -7 4 5 7 14 10 21 7 9 -3 11 2 8 17 -4 18 -3 20 7 7 9 -12 11 -10 7 13 -2
15 -2 25 1 23 8 -9 44 43 37 54 -3 5 2 10 12 11 10 0 13 3 6 6 -7 2 -13 9 -13
15 0 6 7 7 16 4 12 -4 15 -2 11 9 -4 8 7 28 26 47 18 17 27 29 20 25 -6 -4
-15 -2 -19 4 -4 7 -3 9 2 6 11 -7 23 1 43 26 12 15 12 17 -4 11 -16 -7 -16 -5
1 14 20 24 29 29 18 10 -5 -9 -2 -8 9 1 10 8 15 16 12 19 -3 3 1 12 8 20 6 9
7 13 2 10 -6 -4 -11 2 -11 12 0 15 3 17 15 7 12 -10 14 -8 9 10 -4 16 -2 20 9
16 10 -4 14 0 11 13 -2 13 3 19 15 18 13 -2 15 1 7 11 -8 9 -6 14 6 19 9 4 14
13 10 21 -3 10 1 15 12 15 15 0 15 2 2 10 -12 8 -10 10 8 10 19 0 22 4 17 20
-5 15 -2 20 12 20 17 1 17 2 -2 17 -18 14 -18 15 -1 9 14 -5 17 -2 12 9 -4 12
-2 13 12 6 15 -8 17 -4 17 35 0 43 -18 70 -37 58 -5 -3 -7 0 -6 7 2 6 -3 14
-11 17 -9 3 -11 0 -6 -8 5 -8 4 -11 -3 -6 -6 4 -8 14 -5 23 5 13 3 14 -13 5
-15 -9 -21 -7 -31 11 -7 12 -12 16 -13 10 0 -7 -5 -13 -12 -13 -6 0 -9 3 -5 6
9 9 -30 47 -42 40 -5 -4 -12 -2 -16 4 -4 6 -11 7 -17 4 -7 -4 -8 -2 -4 5 10
15 -12 41 -29 35 -7 -3 -16 -1 -19 5 -4 6 -14 8 -24 5 -9 -3 -6 2 8 11 23 15
24 15 3 10 -13 -4 -23 -2 -23 3 0 6 -7 13 -16 16 -14 5 -15 4 -4 -9 11 -13 10
-14 -4 -9 -15 6 -20 17 -17 37 1 4 -7 3 -17 -2 -13 -7 -23 -6 -32 2 -10 10
-12 9 -8 -3 3 -9 -4 -27 -15 -40 -17 -20 -19 -21 -13 -5 5 13 4 17 -3 10 -5
-5 -11 -21 -13 -35 -1 -14 -11 -34 -20 -44 -10 -10 -15 -23 -12 -27 3 -5 -7
-14 -21 -21 -15 -7 -21 -14 -15 -18 7 -4 2 -13 -14 -23 -17 -11 -24 -24 -21
-38 3 -16 0 -19 -12 -15 -14 6 -14 4 -2 -11 9 -11 10 -14 2 -9 -8 4 -13 2 -13
-4 0 -6 -5 -8 -12 -4 -8 5 -7 0 2 -11 8 -10 10 -16 3 -12 -14 9 -28 -27 -17
-45 5 -8 0 -7 -11 2 -17 14 -18 13 -12 -2 4 -12 2 -15 -8 -11 -8 3 -13 9 -10
13 7 11 -31 51 -41 42 -4 -4 -2 1 5 11 11 14 11 17 -2 17 -9 0 -19 5 -23 12
-4 7 -3 8 4 4 8 -5 10 -2 6 8 -3 9 -10 13 -16 10 -5 -3 -12 3 -15 15 -3 12
-10 18 -17 14 -6 -4 -4 2 4 12 8 10 10 16 3 12 -7 -4 -14 1 -18 12 -3 11 -12
18 -19 15 -7 -3 -16 2 -19 10 -4 10 -1 13 9 9 9 -3 3 7 -13 23 -15 16 -30 28
-32 27 -3 -2 1 -9 7 -15 7 -7 12 -16 12 -22 0 -5 -9 1 -20 14 -11 12 -17 27
-13 33 4 6 0 8 -11 4 -10 -4 -15 -3 -11 3 3 6 -2 13 -12 17 -10 4 -24 14 -31
22 -11 13 -12 13 -6 1 5 -10 0 -9 -14 4 -24 21 -29 32 -10 20 7 -4 8 -3 4 4
-4 7 -14 12 -22 12 -10 0 -12 5 -8 13 6 9 5 9 -8 -1 -13 -10 -18 -9 -29 5 -13
17 -13 17 6 3 19 -14 19 -14 6 3 -7 9 -20 17 -27 17 -8 0 -14 6 -14 13 0 8 -4
7 -10 -3 -8 -13 -10 -12 -10 4 0 15 -3 16 -15 6 -12 -10 -13 -8 -10 10 4 18 2
20 -11 9 -8 -6 -17 -9 -21 -5 -3 3 -1 6 5 6 7 0 12 5 12 11 0 5 -4 8 -9 4 -5
-3 -12 -1 -16 4 -3 6 -13 7 -22 4 -12 -5 -14 -3 -8 8 8 12 6 12 -8 0 -9 -7
-17 -9 -17 -4 0 5 -16 17 -36 26 -19 10 -33 14 -30 9 3 -5 -1 -9 -8 -9 -8 0
-12 6 -10 12 3 6 -2 12 -10 12 -8 0 -13 -4 -10 -9 10 -17 -17 -7 -37 13 l-21
21 6 -24 c7 -23 7 -23 -8 2 -9 14 -15 19 -16 13 0 -7 -5 -13 -11 -13 -5 0 -7
5 -4 10 3 6 2 10 -4 10 -5 0 -13 -5 -16 -10 -5 -8 -11 -8 -19 -1 -18 15 -164
21 -170 7 -2 -6 -5 -5 -5 3 -1 11 -4 11 -16 1 -8 -7 -15 -8 -15 -3 0 12 -48 4
-56 -9 -3 -5 -14 -2 -24 7 -12 11 -20 13 -25 5z m8 -15 c-3 -9 -8 -14 -10 -11
-3 3 -2 9 2 15 9 16 15 13 8 -4z m-43 -15 c0 -5 -5 -10 -11 -10 -5 0 -7 5 -4
10 3 6 8 10 11 10 2 0 4 -4 4 -10z m537 -35 c0 -8 -4 -12 -9 -9 -5 3 -6 10 -3
15 9 13 12 11 12 -6z m-832 -79 c-22 -19 -42 -32 -44 -30 -3 3 4 11 15 18 10
8 28 21 39 30 37 29 30 16 -10 -18z m1810 -116 c3 -5 1 -10 -4 -10 -6 0 -11 5
-11 10 0 6 2 10 4 10 3 0 8 -4 11 -10z m-291 -138 c3 -5 -1 -9 -9 -9 -8 0 -12
4 -9 9 3 4 7 8 9 8 2 0 6 -4 9 -8z m516 -12 c0 -5 -2 -10 -4 -10 -3 0 -8 5
-11 10 -3 6 -1 10 4 10 6 0 11 -4 11 -10z m-2504 -386 c1 -9 0 -13 -4 -10 -3
4 -7 14 -8 22 -1 9 0 13 4 10 3 -4 7 -14 8 -22z m509 -14 c4 -6 2 -9 -4 -8 -5
2 -17 -6 -26 -17 -17 -20 -10 0 8 23 12 15 14 15 22 2z m-133 -197 c-6 -2 -9
-10 -6 -15 4 -7 2 -8 -5 -4 -13 9 -5 26 12 25 9 0 8 -2 -1 -6z m-42 -63 c0 -5
-5 -10 -11 -10 -5 0 -7 5 -4 10 3 6 8 10 11 10 2 0 4 -4 4 -10z m-350 -100 c0
-5 -5 -10 -11 -10 -5 0 -7 5 -4 10 3 6 8 10 11 10 2 0 4 -4 4 -10z m264 -48
c3 -5 -1 -9 -9 -9 -8 0 -12 4 -9 9 3 4 7 8 9 8 2 0 6 -4 9 -8z m-119 -22 c3
-6 -1 -7 -9 -4 -18 7 -21 14 -7 14 6 0 13 -4 16 -10z m545 -184 c0 -3 -4 -8
-10 -11 -5 -3 -10 -1 -10 4 0 6 5 11 10 11 6 0 10 -2 10 -4z m-270 -420 c0 -3
-4 -8 -10 -11 -5 -3 -10 -1 -10 4 0 6 5 11 10 11 6 0 10 -2 10 -4z m1180 -2
c0 -8 -19 -13 -24 -6 -3 5 1 9 9 9 8 0 15 -2 15 -3z"/>
<path d="M1656 2133 c-6 -14 -5 -15 5 -6 7 7 10 15 7 18 -3 3 -9 -2 -12 -12z"/>
<path d="M2150 2140 c0 -5 5 -10 11 -10 5 0 7 5 4 10 -3 6 -8 10 -11 10 -2 0
-4 -4 -4 -10z"/>
<path d="M2095 2060 c-3 -5 -1 -10 4 -10 6 0 11 5 11 10 0 6 -2 10 -4 10 -3 0
-8 -4 -11 -10z"/>
<path d="M2375 2061 c-3 -5 -2 -12 3 -15 5 -3 9 1 9 9 0 17 -3 19 -12 6z"/>
<path d="M2065 2000 c-3 -6 1 -7 9 -4 18 7 21 14 7 14 -6 0 -13 -4 -16 -10z"/>
<path d="M1340 1785 c-1 -5 -2 -14 -1 -19 1 -5 -5 -4 -13 3 -13 11 -15 10 -11
-8 3 -15 0 -18 -12 -14 -11 4 -14 2 -9 -5 4 -8 0 -12 -11 -12 -15 0 -16 -2 -3
-10 12 -8 12 -10 -3 -16 -9 -3 -14 -10 -11 -15 3 -5 10 -6 16 -3 7 4 8 2 4 -5
-4 -6 -12 -9 -17 -6 -5 4 -9 -1 -9 -10 0 -9 -5 -13 -10 -10 -6 4 -7 11 -4 17
4 7 2 8 -4 4 -8 -5 -9 -13 -2 -25 7 -14 5 -23 -9 -35 -10 -9 -21 -13 -25 -9
-4 4 -4 -1 0 -12 6 -15 4 -17 -10 -12 -12 5 -15 3 -9 -6 4 -6 8 -18 9 -25 2
-10 -1 -11 -12 -1 -12 10 -13 9 -8 -6 6 -14 4 -16 -6 -10 -8 5 -11 4 -6 -3 9
-15 -12 -65 -24 -57 -5 3 -10 0 -10 -9 0 -8 -6 -16 -12 -19 -10 -3 -10 -7 -1
-19 16 -19 6 -30 -17 -18 -14 8 -16 5 -13 -14 3 -13 0 -27 -6 -30 -7 -5 -8 -1
-4 11 8 23 -1 15 -17 -16 -6 -13 -7 -21 -2 -17 6 3 14 2 17 -4 4 -6 3 -10 -2
-9 -18 3 -36 -1 -30 -8 4 -3 -2 -13 -14 -21 -11 -8 -18 -20 -15 -27 3 -8 -3
-24 -13 -37 -10 -13 -16 -28 -14 -34 2 -6 -7 -18 -20 -27 -17 -11 -24 -24 -22
-40 3 -25 -39 -82 -54 -73 -4 3 -8 -1 -8 -9 0 -8 5 -11 11 -8 6 3 -2 -9 -19
-28 -16 -18 -21 -27 -10 -19 19 14 19 14 2 -6 -9 -11 -14 -24 -10 -28 4 -4 0
-4 -10 0 -12 4 -17 1 -17 -11 0 -9 -4 -14 -8 -11 -5 3 -9 -1 -9 -9 0 -8 4 -12
8 -10 4 3 5 -4 2 -16 -4 -16 -8 -17 -14 -7 -5 7 -9 11 -10 8 0 -3 -2 -14 -4
-25 -2 -11 -11 -25 -19 -31 -9 -6 -13 -14 -9 -17 5 -6 -9 -11 -27 -9 -4 0 -6
-10 -6 -23 0 -13 5 -21 11 -19 5 3 2 -1 -7 -9 -10 -8 -15 -17 -11 -20 6 -7
-13 -11 -31 -8 -5 1 -4 -4 1 -11 13 -14 -8 -54 -21 -41 -4 4 -4 -1 0 -12 6
-14 4 -17 -8 -12 -13 4 -15 1 -12 -19 4 -20 0 -27 -16 -31 -15 -4 -20 -12 -17
-24 3 -11 -4 -25 -19 -36 -24 -18 -34 -41 -12 -27 7 4 8 3 4 -5 -4 -6 -11 -9
-16 -6 -5 3 -14 -3 -19 -14 -8 -14 -8 -21 2 -24 9 -4 9 -6 -1 -6 -7 -1 -10 -5
-7 -11 9 -15 -1 -12 -18 5 -13 13 -16 13 -21 -1 -3 -8 -2 -12 3 -9 5 3 12 1
16 -5 3 -5 1 -10 -4 -10 -6 0 -11 -5 -11 -11 0 -5 4 -8 9 -5 4 3 17 -4 27 -16
11 -12 13 -18 7 -14 -7 4 -13 2 -13 -3 0 -15 13 -14 29 2 12 10 13 9 7 -7 -5
-14 -3 -17 10 -12 11 4 15 2 11 -8 -4 -10 -1 -13 8 -9 8 3 12 10 8 16 -3 6 -1
7 5 3 6 -4 9 -13 5 -21 -3 -8 0 -15 6 -15 6 0 11 6 11 13 0 8 3 8 9 -2 5 -8
16 -11 26 -8 9 4 14 3 10 -3 -3 -6 -1 -10 4 -10 6 0 11 5 11 12 0 6 3 8 7 4 5
-4 -1 -14 -11 -22 -17 -12 -16 -13 19 -9 32 5 36 3 31 -12 -5 -15 -4 -15 9 1
9 12 15 15 15 7 0 -11 3 -11 15 -1 14 12 20 5 17 -21 -2 -12 40 -2 49 12 7 11
9 10 9 -5 0 -13 5 -16 16 -12 9 4 24 1 32 -6 13 -11 15 -10 10 3 -4 9 -1 16 8
16 7 0 11 -4 9 -8 -3 -3 4 -9 15 -12 11 -3 18 -2 15 3 -6 10 23 22 35 15 4 -3
6 5 2 17 -5 19 -3 21 9 11 12 -10 15 -8 15 7 0 10 -5 16 -11 12 -5 -3 -4 2 4
11 7 9 18 14 25 11 6 -3 2 2 -9 11 -20 17 -20 17 5 10 14 -4 22 -4 18 0 -9 9
11 65 24 65 5 0 6 -5 2 -12 -4 -6 -3 -8 4 -4 6 3 9 16 7 27 -3 15 0 19 11 15
12 -4 12 -2 4 14 -7 12 -7 21 0 25 5 3 10 0 10 -7 0 -14 34 31 35 47 2 21 17
45 26 39 5 -3 6 2 3 10 -3 9 -2 16 3 16 5 0 10 7 11 15 1 8 3 21 4 29 1 8 7
12 15 9 9 -3 11 0 7 10 -3 8 0 18 7 23 8 5 10 3 4 -6 -5 -9 -4 -11 4 -6 9 6 9
11 0 22 -7 9 -8 14 -3 13 19 -3 34 1 34 12 0 5 -6 7 -12 4 -7 -4 -5 0 4 8 10
8 14 18 10 22 -4 5 1 5 11 2 13 -5 16 -3 10 6 -14 22 -13 39 2 27 10 -8 15 -8
21 1 5 8 3 9 -6 4 -8 -5 -11 -3 -8 6 3 8 11 13 18 11 11 -2 10 1 0 15 -8 10
-10 15 -6 11 5 -4 17 2 28 14 14 17 16 23 6 30 -10 6 -10 8 0 8 8 0 10 5 6 13
-6 9 -5 9 8 -1 13 -10 15 -9 13 13 -2 14 0 23 3 21 4 -2 16 3 27 11 19 15 19
15 -5 8 -17 -4 -21 -3 -11 3 7 5 10 15 6 22 -6 9 -3 9 13 1 18 -10 20 -9 17
10 -3 16 0 19 12 15 13 -5 14 -4 4 8 -8 10 -9 16 -1 21 5 3 10 1 10 -6 0 -7 3
-9 6 -6 4 4 1 13 -6 22 -10 12 -10 15 3 15 8 0 18 11 21 25 4 14 11 23 15 20
5 -3 7 5 4 17 -4 19 -3 20 6 8 9 -13 11 -13 11 3 0 9 5 17 10 17 6 0 10 9 10
21 0 13 4 18 12 13 7 -5 8 -3 4 5 -5 7 0 18 10 26 11 7 20 18 20 24 1 6 2 18
3 27 0 9 7 14 15 11 10 -4 13 3 11 23 -1 17 2 28 9 27 6 -1 10 6 8 17 -2 11 1
15 7 11 6 -3 11 1 11 10 0 8 6 18 14 21 8 3 12 12 10 19 -3 7 0 16 7 21 8 5
10 3 4 -6 -5 -9 -4 -11 4 -6 9 6 9 11 -1 24 -10 12 -10 14 0 8 8 -5 15 1 21
16 5 13 16 30 25 37 18 16 12 33 -9 24 -10 -3 -15 2 -15 16 0 12 -5 21 -11 21
-5 0 -7 5 -3 12 4 7 3 8 -5 4 -7 -5 -9 -13 -4 -20 4 -7 1 -4 -8 6 -9 9 -20 14
-24 10 -5 -4 -5 2 -1 12 5 15 4 17 -8 7 -11 -9 -15 -9 -19 1 -4 11 -7 10 -15
0 -8 -11 -10 -11 -15 1 -3 8 0 20 6 26 9 9 8 10 -7 5 -15 -6 -17 -4 -11 7 6
11 5 12 -6 2 -17 -16 -33 -17 -23 -1 5 8 2 9 -11 4 -14 -5 -16 -4 -7 7 16 19
4 29 -19 16 -16 -8 -21 -5 -29 16 -7 18 -17 25 -36 25 -22 0 -25 3 -21 23 6
21 6 21 -8 3 -14 -18 -20 -12 -17 15 1 4 -8 4 -20 1 -16 -4 -19 -2 -13 9 7 12
6 12 -7 1 -13 -10 -17 -10 -21 0 -3 7 -6 9 -7 3z m395 -245 c-3 -5 -12 -10
-18 -10 -7 0 -6 4 3 10 19 12 23 12 15 0z m-692 -253 c3 -8 -1 -14 -9 -14 -15
0 -18 9 -7 20 9 9 10 9 16 -6z m532 -16 c3 -5 2 -12 -3 -15 -5 -3 -9 1 -9 9 0
17 3 19 12 6z m-815 -461 c0 -5 -5 -10 -11 -10 -5 0 -7 5 -4 10 3 6 8 10 11
10 2 0 4 -4 4 -10z m407 -212 c-3 -8 -6 -5 -6 6 -1 11 2 17 5 13 3 -3 4 -12 1
-19z m-13 -49 c-3 -5 -10 -7 -15 -3 -5 3 -7 10 -3 15 3 5 10 7 15 3 5 -3 7
-10 3 -15z"/>
<path d="M1216 1628 c3 -5 10 -6 15 -3 13 9 11 12 -6 12 -8 0 -12 -4 -9 -9z"/>
<path d="M23 1453 c-15 -5 -17 -23 -4 -23 5 0 11 7 15 15 3 8 4 15 3 14 -1 0
-8 -3 -14 -6z"/>
<path d="M1721 1413 c-7 -8 -11 -16 -8 -19 2 -2 10 2 17 11 17 20 9 27 -9 8z"/>
<path d="M9 1388 c7 -10 9 -18 4 -18 -5 0 -10 -7 -10 -15 0 -20 4 -19 16 4 8
14 7 22 -7 32 -15 13 -16 12 -3 -3z"/>
<path d="M165 1341 c-3 -5 -2 -12 3 -15 5 -3 9 1 9 9 0 17 -3 19 -12 6z"/>
<path d="M11 1251 c-8 -5 -9 -11 -3 -15 5 -3 12 1 16 9 6 17 6 18 -13 6z"/>
<path d="M911 1098 c-14 -23 -14 -23 8 -4 22 20 25 26 13 26 -4 0 -13 -10 -21
-22z"/>
<path d="M60 1013 c5 -2 8 -9 5 -13 -3 -5 -1 -11 4 -14 5 -4 8 2 7 11 -2 9 -8
18 -15 19 -6 1 -7 0 -1 -3z"/>
<path d="M630 640 c0 -5 5 -10 11 -10 5 0 7 5 4 10 -3 6 -8 10 -11 10 -2 0 -4
-4 -4 -10z"/>
<path d="M530 420 c0 -5 5 -10 11 -10 5 0 7 5 4 10 -3 6 -8 10 -11 10 -2 0 -4
-4 -4 -10z"/>
</g>
</svg>
